<svg width="15" height="15" viewBox="0 0 15 15" fill="none" xmlns="http://www.w3.org/2000/svg">
    <path d="M9.67899 10.739C8.47336 11.6748 6.95641 12.116 5.43694 11.9728C3.91747 11.8296 2.50969 11.1127 1.50016 9.96806C0.490623 8.82345 -0.044779 7.33714 0.00293578 5.81168C0.0506505 4.28622 0.677895 2.83628 1.75699 1.75699C2.83628 0.677895 4.28622 0.0506505 5.81168 0.00293578C7.33714 -0.044779 8.82345 0.490623 9.96806 1.50016C11.1127 2.50969 11.8296 3.91747 11.9728 5.43694C12.116 6.95641 11.6748 8.47336 10.739 9.67899L13.779 12.719C13.8777 12.8107 13.9499 12.9273 13.9879 13.0565C14.0259 13.1858 14.0284 13.3229 13.995 13.4534C13.9616 13.5839 13.8937 13.703 13.7983 13.7982C13.7029 13.8933 13.5836 13.961 13.453 13.994C13.3226 14.0274 13.1856 14.0251 13.0565 13.9872C12.9273 13.9494 12.8107 13.8775 12.719 13.779L9.67899 10.739ZM10.499 5.99899C10.5079 5.4026 10.3981 4.81039 10.176 4.25681C9.95394 3.70323 9.624 3.19934 9.20539 2.77445C8.78679 2.34955 8.28787 2.01214 7.73766 1.78183C7.18746 1.55152 6.59695 1.43292 6.00049 1.43292C5.40403 1.43292 4.81352 1.55152 4.26332 1.78183C3.71311 2.01214 3.2142 2.34955 2.79559 2.77445C2.37698 3.19934 2.04705 3.70323 1.82497 4.25681C1.60289 4.81039 1.4931 5.4026 1.50199 5.99899C1.51961 7.18045 2.0013 8.30756 2.84302 9.13682C3.68474 9.96608 4.8189 10.4309 6.00049 10.4309C7.18208 10.4309 8.31625 9.96608 9.15796 9.13682C9.99968 8.30756 10.4814 7.18045 10.499 5.99899Z"
          fill="currentColor"/>
</svg>
